<mxfile host="app.diagrams.net" modified="2023-04-18T05:07:12.258Z" agent="Mozilla/5.0 (Windows NT 10.0; Win64; x64) AppleWebKit/537.36 (KHTML, like Gecko) Chrome/112.0.0.0 Safari/537.36" version="21.1.8" etag="SdNRXiJSbf2ZsDOYaQO4" type="github">
  <diagram name="第 1 页" id="p-93k6psnbulPgTRcqeC">
    <mxGraphModel>
      <root>
        <mxCell id="0" />
        <mxCell id="1" parent="0" />
      </root>
    </mxGraphModel>
  </diagram>
</mxfile>
